<svg width="20" height="25" viewBox="0 0 20 25" fill="none" xmlns="http://www.w3.org/2000/svg">
<path d="M10 25C11.375 25 12.5 23.8462 12.5 22.4359H7.5C7.5 23.8462 8.625 25 10 25ZM17.5 17.3077V10.8974C17.5 6.96154 15.4625 3.66667 11.875 2.79487V1.92308C11.875 0.858974 11.0375 0 10 0C8.9625 0 8.125 0.858974 8.125 1.92308V2.79487C4.55 3.66667 2.5 6.94872 2.5 10.8974V17.3077L0 19.8718V21.1538H20V19.8718L17.5 17.3077ZM15 18.5897H5V10.8974C5 7.71795 6.8875 5.12821 10 5.12821C13.1125 5.12821 15 7.71795 15 10.8974V18.5897Z" fill="#1d4ed8"/>
</svg>
