<svg xmlns="http://www.w3.org/2000/svg"
 width="240.000000pt" height="240.000000pt" viewBox="0 0 240.000000 240.000000"
 preserveAspectRatio="xMidYMid meet">

<g transform="translate(0.000000,240.000000) scale(0.100000,-0.100000)"
fill="#000000" stroke="none">
<path d="M337 2334 c-4 -4 -7 -31 -7 -61 l0 -53 -43 0 c-90 0 -167 -42 -208
-113 l-24 -42 -3 -753 c-2 -510 1 -766 8 -793 6 -21 25 -55 42 -75 61 -69 56
-68 433 -74 l340 -5 5 -61 c3 -34 12 -69 20 -79 23 -27 75 -46 109 -39 29 6
31 4 31 -21 0 -37 56 -91 104 -100 50 -10 105 12 133 54 19 29 23 47 23 117
l0 84 310 0 310 0 0 -77 c0 -89 18 -130 72 -163 76 -46 172 -4 194 84 6 24 10
26 35 21 38 -8 96 20 114 56 22 41 21 368 0 409 -20 38 -69 64 -110 57 -29 -5
-32 -3 -46 36 -9 27 -26 49 -46 62 l-32 20 -3 615 c-3 613 -3 615 -25 657 -42
77 -122 123 -217 123 l-36 0 0 48 c0 26 -5 53 -12 60 -8 8 -52 12 -133 12 -81
0 -125 -4 -133 -12 -7 -7 -12 -34 -12 -60 l0 -48 -465 0 -464 0 -3 58 -3 57
-126 3 c-69 1 -128 -1 -132 -4z m203 -149 c0 -108 -14 -135 -71 -135 -67 0
-89 38 -89 156 l0 74 80 0 80 0 0 -95z m1220 2 c0 -87 -2 -95 -25 -117 -37
-34 -90 -33 -121 4 -21 24 -24 37 -24 117 l0 89 85 0 85 0 0 -93z m-1430 -64
c0 -72 63 -133 137 -133 68 0 133 67 133 137 l0 33 465 0 465 0 0 -25 c0 -37
23 -86 55 -115 22 -21 36 -25 90 -25 54 0 68 4 90 25 32 29 55 78 55 116 0 26
1 26 60 22 64 -5 97 -22 134 -72 17 -23 22 -45 24 -132 l4 -104 -809 -2 c-800
-3 -808 -3 -808 -23 0 -20 8 -20 805 -25 l805 -5 2 -480 2 -480 -41 -20 c-59
-28 -78 -70 -78 -167 l0 -78 -307 2 -308 3 -5 93 c-5 93 -5 94 -42 128 -33 29
-45 34 -89 34 -46 0 -55 -4 -90 -39 -24 -24 -39 -48 -39 -63 0 -23 -3 -24 -50
-24 -41 1 -54 -4 -77 -27 -27 -26 -28 -33 -33 -140 l-5 -112 -332 0 c-321 0
-332 1 -360 21 -15 11 -38 36 -51 54 l-22 33 0 633 0 633 88 3 c79 3 87 5 87
23 0 18 -8 20 -87 23 l-88 3 0 95 c0 116 15 154 74 189 30 18 56 25 94 25 l52
0 0 -37z m891 -1373 l30 -29 -3 -282 -3 -281 -24 -19 c-32 -26 -77 -24 -106 6
l-25 24 0 276 0 277 29 29 c37 37 65 37 102 -1z m892 -2 c15 -18 17 -48 17
-304 0 -271 -1 -285 -20 -304 -27 -27 -77 -26 -107 2 -23 21 -23 22 -23 300 0
179 4 287 11 299 22 42 89 46 122 7z m-1089 -120 c13 -18 16 -54 16 -183 0
-175 -8 -205 -55 -205 -47 0 -55 30 -55 205 0 175 8 205 55 205 13 0 31 -10
39 -22z m1254 10 c8 -8 12 -65 12 -189 0 -188 -5 -209 -50 -209 -45 0 -50 21
-50 201 0 98 4 179 10 190 12 22 59 26 78 7z m-358 -188 l0 -70 -300 0 c-165
0 -303 0 -307 0 -9 0 -16 107 -9 126 4 11 62 14 311 14 l305 0 0 -70z"/>
<path d="M170 1696 c-7 -10 -10 -26 -6 -42 5 -19 12 -25 29 -22 18 2 22 9 22
38 0 39 -23 52 -45 26z"/>
<path d="M645 1618 c-22 -26 -26 -39 -21 -67 6 -42 46 -81 82 -81 70 0 116 63
90 125 -17 40 -42 55 -89 55 -27 0 -41 -7 -62 -32z m95 -33 c20 -24 3 -57 -28
-53 -30 3 -41 30 -22 53 16 19 34 19 50 0z"/>
<path d="M1006 1619 c-35 -41 -34 -83 3 -120 60 -60 150 -22 151 64 0 83 -100
120 -154 56z m94 -34 c20 -24 3 -57 -28 -53 -30 3 -41 30 -22 53 16 19 34 19
50 0z"/>
<path d="M1379 1637 c-47 -36 -51 -97 -10 -138 37 -37 79 -38 120 -3 64 54 27
154 -56 154 -21 0 -45 -6 -54 -13z m76 -53 c9 -9 14 -21 12 -27 -6 -18 -33
-31 -51 -24 -19 7 -22 53 -3 60 20 9 25 8 42 -9z"/>
<path d="M1725 1624 c-35 -38 -34 -87 4 -125 20 -20 39 -29 61 -29 44 0 90 47
90 93 0 51 -38 87 -90 87 -31 0 -47 -6 -65 -26z m89 -40 c20 -19 5 -54 -24
-54 -29 0 -44 35 -24 54 8 9 19 16 24 16 5 0 16 -7 24 -16z"/>
<path d="M166 1565 c-3 -9 -6 -126 -6 -260 0 -202 2 -245 15 -255 8 -7 22 -10
30 -6 13 5 15 40 13 268 -3 259 -3 263 -24 266 -13 2 -24 -4 -28 -13z"/>
<path d="M293 1328 c-29 -32 -37 -65 -22 -99 12 -30 54 -59 84 -59 33 0 73 30
84 63 21 63 -18 117 -84 117 -30 0 -47 -6 -62 -22z m87 -43 c20 -25 8 -50 -25
-50 -21 0 -31 5 -33 18 -4 21 14 47 33 47 7 0 18 -7 25 -15z"/>
<path d="M646 1319 c-29 -35 -32 -58 -12 -98 14 -26 53 -51 81 -51 50 0 100
62 88 111 -11 44 -42 69 -89 69 -35 0 -47 -5 -68 -31z m95 -35 c17 -21 0 -49
-32 -49 -27 0 -37 28 -19 50 16 19 34 19 51 -1z"/>
<path d="M1019 1337 c-27 -21 -41 -57 -35 -92 8 -40 34 -64 78 -71 81 -14 132
93 73 151 -27 28 -88 34 -116 12z m82 -53 c17 -21 0 -49 -32 -49 -18 0 -25 6
-27 24 -6 38 34 55 59 25z"/>
<path d="M1382 1343 c-18 -7 -42 -57 -42 -87 0 -37 39 -76 82 -83 32 -5 41 -1
68 25 60 61 26 153 -57 151 -21 0 -44 -3 -51 -6z m78 -64 c9 -15 8 -24 -1 -35
-18 -22 -53 -13 -57 15 -6 40 39 56 58 20z"/>
<path d="M1725 1325 c-54 -53 -11 -155 65 -155 45 0 90 47 90 95 0 51 -36 85
-90 85 -30 0 -47 -6 -65 -25z m94 -42 c12 -23 -4 -53 -29 -53 -25 0 -41 29
-29 52 12 23 45 23 58 1z"/>
<path d="M330 1053 c-25 -9 -52 -37 -61 -62 -20 -51 30 -121 85 -121 51 0 103
65 90 114 -11 46 -74 84 -114 69z m54 -75 c8 -14 7 -21 -6 -34 -30 -30 -75 9
-48 42 16 18 39 15 54 -8z"/>
<path d="M674 1044 c-31 -15 -54 -50 -54 -80 0 -28 28 -70 55 -82 40 -18 62
-15 97 17 26 23 32 36 31 66 -2 68 -69 109 -129 79z m67 -60 c17 -21 0 -49
-32 -49 -27 0 -37 28 -19 50 16 19 34 19 51 -1z"/>
<path d="M1034 1046 c-63 -28 -69 -120 -11 -157 61 -38 137 2 137 72 0 70 -63
113 -126 85z m67 -62 c17 -21 0 -49 -32 -49 -18 0 -25 6 -27 24 -6 38 34 55
59 25z"/>
<path d="M1393 1045 c-57 -25 -71 -93 -29 -142 19 -22 32 -28 66 -28 100 0
126 132 35 171 -40 16 -32 17 -72 -1z m67 -66 c14 -26 -4 -51 -34 -47 -21 3
-32 28 -22 54 8 21 44 17 56 -7z"/>
<path d="M1753 1045 c-57 -25 -71 -93 -29 -142 19 -22 32 -28 66 -28 100 0
126 132 35 171 -40 16 -32 17 -72 -1z m66 -62 c12 -23 -4 -53 -29 -53 -25 0
-41 29 -29 52 12 23 45 23 58 1z"/>
<path d="M299 732 c-43 -39 -46 -90 -6 -129 56 -57 151 -17 151 62 0 43 -34
82 -80 91 -26 5 -38 1 -65 -24z m85 -54 c8 -14 7 -21 -6 -34 -30 -30 -75 9
-48 42 16 18 39 15 54 -8z"/>
<path d="M671 746 c-27 -15 -50 -52 -51 -79 0 -35 29 -75 63 -86 62 -21 119
20 119 85 0 65 -76 112 -131 80z m73 -68 c15 -24 -13 -53 -43 -43 -21 6 -29
43 -14 59 12 12 45 2 57 -16z"/>
</g>
</svg>
